PathFileType	4	(X/Y/Z)	Patient4_TMGait_0pt6_01_left_42.trc.trc
DataRate	CameraRate	NumFrames	NumMarkers	Units	OrigDataRate	OrigDataStartFrame	OrigNumFrames
83.832335329342	83.832335329342	5	33	mm	83.832335329342	89	       141
Frame#	Time	Sacral			L.Shoulder			Chest			R.Shoulder			Neck			R.ASIS			L.ASIS			R.Thigh.Superior			R.Thigh.Lateral			R.Thigh.Inferior			R.Patella			L.Thigh.Superior			L.Thigh.Lateral			L.Thigh.Inferior			L.Patella			L.Shank.Superior			L.Shank.Lateral			L.Shank.Inferior			R.Shank.Superior			R.Shank.Lateral			R.Shank.Inferior			R.Heel			R.Midfoot.Superior			R.Midfoot.Lateral			R.Toe			L.Heel			L.Midfoot.Lateral			L.Midfoot.Superior			L.Toe			L.Elbow			L.Wrist			R.Elbow			R.Wrist			
		X1	Y1	Z1	X2	Y2	Z2	X3	Y3	Z3	X4	Y4	Z4	X5	Y5	Z5	X6	Y6	Z6	X7	Y7	Z7	X8	Y8	Z8	X9	Y9	Z9	X10	Y10	Z10	X11	Y11	Z11	X12	Y12	Z12	X13	Y13	Z13	X14	Y14	Z14	X15	Y15	Z15	X16	Y16	Z16	X17	Y17	Z17	X18	Y18	Z18	X19	Y19	Z19	X20	Y20	Z20	X21	Y21	Z21	X22	Y22	Z22	X23	Y23	Z23	X24	Y24	Z24	X25	Y25	Z25	X26	Y26	Z26	X27	Y27	Z27	X28	Y28	Z28	X29	Y29	Z29	X30	Y30	Z30	X31	Y31	Z31	X32	Y32	Z32	X33	Y33	Z33	

89	52.139714285714	790.468264835675	999.705272585303	463.299044145369	966.815475568508	1432.099596612859	290.335895391053	1063.415319196518	1361.234671629029	453.940231044663	972.825274434330	1430.786984595886	624.589999769863	958.576192675400	1491.989929129401	441.835089524818	1015.923595374556	941.631683486786	588.307020764930	1009.647626412310	957.035188404919	311.798143016996	1077.113352841198	747.647116536446	563.230590076089	1002.797830114862	633.330347048828	616.904263363947	1088.421359481600	588.947374789316	539.685164523734	1096.356223355333	501.265657792723	544.835653514316	1057.524893603828	742.963043950133	340.700740430657	981.180458422650	624.249324357883	271.651130182175	1070.722818560739	543.912495262404	331.103181460853	1064.972264289109	456.050693804974	328.089633041265	993.891754265515	397.803134628239	324.209220718385	851.270860971244	359.967380975707	277.177546928703	832.209360484353	234.901776506688	337.908229452364	1076.177812481816	410.655750363034	550.756406563470	1011.826341838907	300.801212060713	609.105692504089	1064.578944109223	210.534314423615	547.422978042252	943.503597084546	41.497059606360	512.013425343431	1113.287510408261	98.006711491701	550.190954124964	1025.710065769689	36.546536785186	588.133347371582	1233.464276216434	48.333499690032	579.296868268293	638.070557000003	177.347575224805	380.367640558681	693.332447135581	132.583437467484	298.177787643184	798.709504906856	138.143763082558	317.689053123835	873.524616646173	33.618116585251	286.503407797494	990.983869507046	1079.204047648767	170.942632483912	1210.603839568835	941.311606845400	195.755547463590	881.048128870665	1090.673867583503	728.502648229850	912.905738227830	832.339312831205	746.578701969709	
90	52.151642857143	789.855883108626	1000.872114175767	466.296163951639	966.011945909117	1432.930704980087	292.469182739557	1063.850345601147	1361.650191831889	455.183004682413	974.941974589427	1431.166655346687	626.761661878651	959.461105286097	1492.708523014700	444.155088924507	1015.992295051921	942.294888804776	589.473319077183	1008.886777125449	958.371203525325	313.179000183767	1074.742655718520	746.959660174639	564.552572521285	999.340033046252	633.396711508763	618.179308114954	1083.994890904152	588.273598748824	540.373423311224	1090.935873531998	500.739685887693	545.259173447699	1061.151858559130	746.838509063221	342.118420646312	989.203793052578	626.288878492243	272.420423387179	1081.412683105061	548.326557901915	331.782116758464	1077.578823034872	459.604131673360	328.658883347476	1005.589093767460	400.910648473010	324.811048358393	861.956197207096	366.287571796149	277.758988472315	840.283629938667	241.415589641034	338.230644146954	1070.477134035307	410.331851185767	551.312933393557	1005.811840157272	300.661850683587	609.535924099641	1058.071193317795	210.326663422465	547.595542286365	936.426381445594	41.421745008335	512.144370438710	1106.208302757528	97.919696064501	550.298868856060	1018.622937874592	36.489554196793	588.274954968726	1226.377465712130	48.329705063274	579.434510756097	644.567168422377	189.419477498772	380.363713313869	698.646752058951	143.145506251514	298.014716418320	804.531755151635	144.600486560570	317.821817464125	875.503157943248	35.061756069530	286.017297807860	986.214689712893	1078.965904646373	174.581960396788	1199.022083672085	929.737127248674	197.859653024174	891.224687286716	1088.445522706246	731.982207111440	935.296484211423	831.621932713930	748.173392637320	
91	52.163571428571	789.154259663396	1001.995140398788	469.207096831264	965.072857546050	1433.651905921956	294.436274697643	1064.217905809689	1361.972609072565	456.220704540844	977.071312043987	1431.461255908731	628.751817309426	960.292012335847	1493.353712365281	446.306610886488	1015.874698727887	942.781069203640	590.504110728367	1007.837292369856	959.601839530155	314.514526401404	1072.225536628803	746.245491897038	565.582328492555	995.886224632522	633.395697252004	619.312442187637	1079.487200195753	587.587517595915	540.866630486779	1085.463280190545	500.208835773223	545.536656292360	1064.402536309685	750.924257464925	343.464511146097	996.623606639105	628.806496440985	273.155555961416	1091.299120518400	553.253964512109	332.551315746793	1089.556789815888	463.828884053547	329.366193871659	1017.070027560828	404.482784840820	325.456761707925	872.778457125234	372.047963496982	278.311331526166	849.346176142100	247.248585584241	338.514300622445	1064.742770106260	409.981810352479	551.720911345123	999.789273591905	300.502023314815	609.865685354772	1051.536931880040	210.097580395476	547.658915318942	929.301303672541	41.358006509080	512.235152464425	1099.103271229453	97.798428759378	550.334856651655	1011.493416479968	36.426095401809	588.374437379492	1219.260851675615	48.231759739471	579.520083381668	652.652702777674	198.916727703337	380.340928900493	705.941507771735	151.861087763855	297.782630214956	812.110228999425	150.426061284160	317.846053683838	880.407518174406	37.058424963810	285.270475654552	981.237777052869	1078.662038378609	177.960424309169	1186.465974879410	918.368006107804	199.759168075735	901.716605192000	1086.395392972958	735.413846667972	958.274697716115	831.747628039011	749.508862058500	
92	52.175500000000	788.380143626596	1003.088415340936	472.013047419640	964.060801594676	1434.287550622420	296.237458996316	1064.533713346058	1362.215201814526	457.070924553069	979.214377173558	1431.719109804982	630.541505491891	961.095470396619	1493.948102442772	448.272652150222	1015.563141358537	943.116610767942	591.451887912032	1006.441283011533	960.697919376827	315.834852533150	1069.633247902925	745.555109639856	566.353739049955	992.467497355770	633.362834827689	620.311683319008	1074.963868512566	586.914539829815	541.216924047648	1080.003602464973	499.696150513560	545.707137263492	1067.239061749687	755.194223083296	344.810267470336	1003.435485271625	631.776264503546	273.875498333917	1100.350596314933	558.624438540481	333.445399966525	1100.841344425868	468.661557628496	330.189762313907	1028.291455399309	408.447687637217	326.118804615470	883.686332797787	377.052196517892	278.819454217786	859.482250575698	252.151415469350	338.709906922160	1059.026700278469	409.625592611834	552.006221376606	993.795365303272	300.351139539719	610.128715473424	1044.997326677547	209.861476260821	547.641642752099	922.130338196505	41.316713747817	512.300097360186	1091.979171259663	97.659097788548	550.322042881631	1004.326430219830	36.368782671980	588.444920248460	1212.120137811036	48.055322265430	579.566956059263	662.387963884458	205.415137782133	380.245623382144	715.324719593101	158.300998757242	297.437271707312	821.611822954944	155.290873524458	317.701144836571	888.533431408361	39.450546326616	284.253792577339	976.050283551137	1078.335400582268	181.092239143305	1172.942095753267	907.303358830158	201.426626399215	912.524055957939	1084.596895473817	738.749362027891	981.740622761294	832.840871895122	750.525648575546	
93	52.187428571429	787.546840659228	1004.164198482909	474.704850458722	963.030655733498	1434.861349602940	297.880719239736	1064.809266662320	1362.393781321409	457.758499834381	981.366020716641	1431.987268728813	632.121954415800	961.890515056979	1494.511555667511	450.044936176459	1015.065783271658	943.335342985837	592.358936840124	1004.666372115405	961.645343839808	317.161482431637	1067.014422069817	744.915199346066	566.916235254953	989.083667546212	633.330605913502	621.189060403372	1070.460310294376	586.269898382672	541.474426545580	1074.591635260253	499.216559239379	545.805226108454	1069.636311734712	759.612835533162	346.214850330560	1009.660273091667	635.150442677563	274.591619582266	1108.563266272099	564.346286831925	334.484781533771	1111.388397576896	474.017320120241	331.105768705984	1039.226037688318	412.718411720759	326.769820855907	894.649310277734	381.136651151817	279.270386256296	870.761823939476	255.932806581145	338.777504798685	1053.354067501375	409.279733862294	552.195878459256	987.845830919747	300.230937226052	610.354111893417	1038.463504683138	209.630507457331	547.573117193387	914.921123290223	41.302394296383	512.350765003786	1084.843689825109	97.516331697621	550.282994152332	997.131406538647	36.325860932303	588.497397187068	1204.963607510511	47.818896228128	579.589316259630	673.831306651042	208.665029289247	380.033394061429	726.864983558800	162.184743066929	296.942955726718	833.155262039139	158.932556816063	317.344896707141	900.040372328586	42.027058203354	282.968838050751	970.651125139732	1078.032031096973	184.001280109350	1158.473485399522	896.642020355554	202.843349101944	923.627739236904	1083.120234640849	741.942760710536	1005.592337910496	835.016667788175	751.174823907160	
